<svg width="54" height="54" viewBox="0 0 54 54" fill="none" xmlns="http://www.w3.org/2000/svg">
<path d="M26.9998 52.8333C41.2676 52.8333 52.8332 41.2677 52.8332 27C52.8332 12.7322 41.2676 1.16663 26.9998 1.16663C12.7321 1.16663 1.1665 12.7322 1.1665 27C1.1665 41.2677 12.7321 52.8333 26.9998 52.8333Z" stroke="black" stroke-width="1.5" stroke-linecap="round" stroke-linejoin="round"/>
<path d="M27 34.75C29.0554 34.75 31.0267 33.9335 32.4801 32.4801C33.9335 31.0267 34.75 29.0554 34.75 27C34.75 24.9446 33.9335 22.9733 32.4801 21.5199C31.0267 20.0665 29.0554 19.25 27 19.25C24.9446 19.25 22.9733 20.0665 21.5199 21.5199C20.0665 22.9733 19.25 24.9446 19.25 27C19.25 29.0554 20.0665 31.0267 21.5199 32.4801C22.9733 33.9335 24.9446 34.75 27 34.75V34.75Z" stroke="black" stroke-width="1.5" stroke-linecap="round" stroke-linejoin="round"/>
<path d="M1.1665 27H19.2498M34.7498 27H52.8332" stroke="black" stroke-width="1.5"/>
</svg>
